#!OML:ASF H:\GeneralSubjects\Female5\Project 1\Capture day 1\Session 1\Female5.ASF
:FULLY-SPECIFIED
:DEGREES
427
root 4.70024 15.9919 4.42539 -172.605 -54.2334 183.476
lowerback 8.46867 3.21486 3.17712
upperback -10.2331 4.35506 -1.30355
thorax -15.8629 1.38366 -4.14336
lowerneck -10.9785 1.56059 3.64922
upperneck 29.1161 2.63955 -8.22839
head 11.4143 0.131882 -3.43183
rclavicle 7.37491e-014 2.18663e-014
rhumerus -26.4601 -8.45412 -43.2803
rradius 106.808
rwrist -11.8101
rhand -44.7324 -7.89016
rfingers 7.12502
rthumb -17.5261 -37.1202
lclavicle 7.37491e-014 2.18663e-014
lhumerus -25.8048 18.238 49.3253
lradius 111.932
lwrist -0.497602
lhand -49.139 50.7336
lfingers 7.12502
lthumb -21.7625 -640.47
rfemur -8.86521 2.15453 16.4628
rtibia 14.903
rfoot -14.8026 -10.7633
rtoes -16.6058
lfemur -18.116 -22.3098 -6.27855
ltibia 18.5586
lfoot -13.3426 -4.64093
ltoes -17.649
428
root 4.79134 16.0255 4.31499 -169.582 -51.3427 179.586
lowerback 8.83841 4.51498 3.36795
upperback -10.231 5.8571 -3.58695
thorax -15.6937 1.87815 -7.17099
lowerneck -10.9413 1.30435 3.43632
upperneck 29.1426 1.92076 -6.70044
head 11.3452 -0.0125971 -2.90953
rclavicle 3.06128e-014 2.70347e-014
rhumerus -23.8058 -9.3746 -46.8097
rradius 106.468
rwrist -11.2777
rhand -44.5295 -7.83408
rfingers 7.12502
rthumb -17.3308 -37.0814
lclavicle 3.06128e-014 2.70347e-014
lhumerus -28.6562 18.9882 44.3884
lradius 112.392
lwrist 0.080544
lhand -49.6033 50.3158
lfingers 7.12502
lthumb -22.2083 -640.94
rfemur -9.68668 2.13771 14.395
rtibia 15.0184
rfoot -15.4773 -9.65211
rtoes -14.6828
lfemur -16.0335 -20.9662 -8.71557
ltibia 16.949
lfoot -13.7422 -2.36204
ltoes -21.9844
429
root 4.8845 16.0623 4.20673 -167.43 -48.466 176.311
lowerback 9.65269 5.71424 3.54225
upperback -10.181 7.23278 -5.65956
thorax -15.6696 2.31343 -10.0169
lowerneck -10.6748 1.05118 2.3375
upperneck 29.0298 1.18118 -4.41946
head 11.1831 -0.173413 -1.95803
rclavicle 9.57148e-014 -1.59028e-015
rhumerus -21.1026 -10.0016 -50.2048
rradius 106.092
rwrist -11.0955
rhand -44.7727 -7.90614
rfingers 7.12502
rthumb -17.5649 -37.1327
lclavicle 9.57148e-014 -1.59028e-015
lhumerus -31.8469 19.8772 39.3136
lradius 112.68
lwrist 0.584394
lhand -50.2324 51.5771
lfingers 7.12502
lthumb -22.8121 -639.752
rfemur -10.668 2.01451 12.2536
rtibia 15.9339
rfoot -15.046 -8.0095
rtoes -15.9405
lfemur -13.8957 -19.4891 -11.0466
ltibia 15.595
lfoot -13.5494 -0.0100693
ltoes -22.1694
430
root 4.98407 16.0971 4.09438 -166.291 -45.7551 173.947
lowerback 10.6516 6.79838 3.83848
upperback -10.0703 8.5167 -7.36679
thorax -15.6268 2.71841 -12.5763
lowerneck -10.6129 0.876039 1.17237
upperneck 29.1955 0.695215 -2.67713
head 11.2048 -0.309999 -1.17961
rclavicle -1.28614e-013 2.06736e-014
rhumerus -18.4061 -10.3404 -53.3171
rradius 105.69
rwrist -10.991
rhand -44.9283 -7.88363
rfingers 7.12502
rthumb -17.7147 -37.0967
lclavicle -1.28614e-013 2.06736e-014
lhumerus -35.3544 20.916 34.2775
lradius 112.482
lwrist 1.24768
lhand -51.1795 52.6094
lfingers 7.12502
lthumb -23.7207 -638.834
rfemur -11.8791 2.00002 10.5729
rtibia 17.7534
rfoot -14.6485 -5.93837
rtoes -15.8291
lfemur -11.8093 -18.0181 -12.7645
ltibia 14.4278
lfoot -12.7367 2.5397
ltoes -20.488
431
root 5.0917 16.1261 3.97973 -165.837 -43.3744 172.227
lowerback 11.822 7.69505 4.15859
upperback -9.89863 9.6137 -8.66578
thorax -15.6277 3.06411 -14.7186
lowerneck -10.3358 0.727127 2.65722
upperneck 29.3384 0.423729 -3.69217
head 11.2019 -0.399546 -1.84658
rclavicle 4.41302e-014 5.56597e-014
rhumerus -15.634 -10.3929 -56.046
rradius 105.235
rwrist -10.8049
rhand -44.9512 -8.0091
rfingers 7.12502
rthumb -17.7367 -37.2202
lclavicle 4.41302e-014 5.56597e-014
lhumerus -39.06 21.8435 29.2434
lradius 111.975
lwrist 2.06028
lhand -51.5106 51.7566
lfingers 7.12502
lthumb -24.0383 -639.729
rfemur -13.138 2.09653 9.41833
rtibia 20.084
rfoot -14.4369 -4.23164
rtoes -16.2737
lfemur -9.93401 -16.7107 -13.9502
ltibia 13.5626
lfoot -11.706 5.23858
ltoes -19.6953
432
root 5.20892 16.1563 3.87221 -165.626 -41.4773 170.805
lowerback 13.1935 8.37249 4.58337
upperback -9.8521 10.4356 -9.90895
thorax -15.6043 3.34444 -16.4444
lowerneck -10.3697 0.454575 1.41208
upperneck 29.1751 0.00628413 -2.55544
head 11.1313 -0.577519 -1.26023
rclavicle -6.65929e-014 -3.81667e-014
rhumerus -12.6893 -10.4489 -58.5323
rradius 104.63
rwrist -10.6678
rhand -44.7347 -8.00564
rfingers 7.12502
rthumb -17.5283 -37.2354
lclavicle -6.65929e-014 -3.81667e-014
lhumerus -42.897 22.3209 24.3895
lradius 111.149
lwrist 2.64088
lhand -51.5286 52.3096
lfingers 7.12502
lthumb -24.0555 -639.178
rfemur -14.2415 2.30128 8.60151
rtibia 22.3715
rfoot -14.6499 -3.20624
rtoes -18.6695
lfemur -8.60373 -15.7761 -14.8121
ltibia 13.1351
lfoot -10.9648 7.94352
ltoes -18.8829
433
root 5.33622 16.1881 3.77309 -165.746 -40.1925 170.015
lowerback 14.492 8.76267 5.25052
upperback -9.60285 11.0472 -10.5682
thorax -15.6672 3.49238 -17.958
lowerneck -10.0121 0.41129 1.10857
upperneck 28.6329 0.00411656 -2.412
head 10.8527 -0.576468 -1.14186
rclavicle 2.56432e-014 8.74653e-014
rhumerus -9.40221 -10.1913 -60.7603
rradius 103.725
rwrist -10.6871
rhand -44.6344 -7.51114
rfingers 7.12502
rthumb -17.4318 -36.7495
lclavicle 2.56432e-014 8.74653e-014
lhumerus -47.1226 22.0061 19.9601
lradius 110.576
lwrist 3.56647
lhand -51.6306 55.4236
lfingers 7.12502
lthumb -24.1534 -636.077
rfemur -14.9674 2.92381 8.49029
rtibia 24.106
rfoot -15.5283 -3.10928
rtoes -20.5089
lfemur -7.96987 -15.041 -14.9487
ltibia 13.2049
lfoot -10.1815 10.5187
ltoes -17.3085
434
root 5.46788 16.2108 3.67324 -166.063 -39.4452 169.717
lowerback 15.2793 8.83575 5.92586
upperback -9.23934 11.3447 -10.694
thorax -15.4541 3.59962 -18.6495
lowerneck -10.5945 0.437145 -0.0366274
upperneck 28.8317 0.33878 -2.51469
head 11.0514 -0.559833 -0.945528
rclavicle 9.48203e-014 -1.11319e-014
rhumerus -5.74997 -9.07773 -62.4544
rradius 102.466
rwrist -10.8492
rhand -44.8876 -6.86074
rfingers 7.12502
rthumb -17.6754 -36.0774
lclavicle 9.48203e-014 -1.11319e-014
lhumerus -50.8258 23.486 16.3934
lradius 109.03
lwrist 3.67995
lhand -51.2551 55.745
lfingers 7.12502
lthumb -23.7933 -635.708
rfemur -15.1114 3.99178 8.99147
rtibia 24.9643
rfoot -16.9175 -3.70245
rtoes -20.9585
lfemur -7.82702 -14.3048 -14.4715
ltibia 13.5833
lfoot -9.08824 12.9172
ltoes -15.7997
435
root 5.59762 16.2215 3.57148 -166.075 -39.0945 169.2
lowerback 15.5807 8.75601 6.17156
upperback -8.83095 11.3502 -10.606
thorax -15.1135 3.66182 -18.6599
lowerneck -10.9644 0.531406 -0.767396
upperneck 28.8533 0.850021 -3.20577
head 11.1462 -0.491796 -1.00922
rclavicle -1.35869e-013 1.04958e-013
rhumerus -2.40295 -7.41799 -63.4499
rradius 101.124
rwrist -11.1685
rhand -45.2059 -6.49393
rfingers 7.12502
rthumb -17.9818 -35.6827
lclavicle -1.35869e-013 1.04958e-013
lhumerus -54.8671 24.138 13.419
lradius 108.458
lwrist 4.19979
lhand -51.0683 56.5569
lfingers 7.12502
lthumb -23.6142 -634.873
rfemur -14.6851 5.29103 9.38016
rtibia 24.8636
rfoot -18.5474 -4.48013
rtoes -20.2455
lfemur -8.01179 -14.01 -14.1144
ltibia 14.0079
lfoot -8.24494 15.1531
ltoes -14.3801
436
root 5.71837 16.2213 3.47074 -165.706 -39.1243 168.265
lowerback 15.7007 8.6491 6.11055
upperback -8.47316 11.2041 -10.605
thorax -14.8232 3.66176 -18.5455
lowerneck -10.9678 0.660471 -1.30904
upperneck 28.6764 1.33018 -3.81277
head 11.0928 -0.40312 -1.07415
rclavicle 3.57812e-014 -9.06458e-014
rhumerus 0.0194198 -5.84905 -63.9438
rradius 100.032
rwrist -11.3197
rhand -45.5068 -6.66772
rfingers 7.12502
rthumb -18.2712 -35.8296
lclavicle 3.57812e-014 -9.06458e-014
lhumerus -57.0222 25.679 11.2823
lradius 108.04
lwrist 4.7107
lhand -51.1074 57.5464
lfingers 7.12502
lthumb -23.6516 -633.889
rfemur -13.752 6.35974 9.40532
rtibia 23.9204
rfoot -19.8884 -5.29251
rtoes -19.0551
lfemur -8.35627 -14.3403 -14.1763
ltibia 14.3404
lfoot -7.89308 17.4
ltoes -12.8323
437
root 5.83434 16.2106 3.37294 -165.282 -39.6142 167.33
lowerback 15.761 8.46243 6.04387
upperback -8.14897 10.9466 -10.587
thorax -14.5809 3.60027 -18.3849
lowerneck -11.2244 0.685403 -1.68712
upperneck 28.9031 1.58095 -4.25727
head 11.2417 -0.399091 -1.14623
rclavicle 1.39249e-013 -7.95139e-015
rhumerus 1.40871 -4.51282 -63.9518
rradius 99.4788
rwrist -11.4525
rhand -45.4781 -7.01877
rfingers 7.12502
rthumb -18.2436 -36.1832
lclavicle 1.39249e-013 -7.95139e-015
lhumerus -57.8013 27.0393 10.1888
lradius 108.219
lwrist 5.45231
lhand -51.4853 59.2496
lfingers 7.12502
lthumb -24.014 -632.233
rfemur -12.88 6.74993 9.43837
rtibia 23.2669
rfoot -20.9384 -5.86589
rtoes -17.9708
lfemur -8.94857 -14.8051 -14.2129
ltibia 14.6837
lfoot -7.48519 19.9783
ltoes -10.2643
438
root 5.95548 16.1927 3.27941 -164.871 -40.639 166.655
lowerback 15.738 8.13361 6.0476
upperback -7.93138 10.5346 -10.4369
thorax -14.4774 3.44474 -18.0865
lowerneck -11.2257 0.764085 -1.66512
upperneck 29.05 1.83924 -4.836
head 11.3129 -0.363511 -1.33468
rclavicle 9.06458e-014 6.99722e-014
rhumerus 1.54677 -3.29653 -63.4583
rradius 99.671
rwrist -11.5941
rhand -45.0655 -7.03314
rfingers 7.12502
rthumb -17.8467 -36.2342
lclavicle 9.06458e-014 6.99722e-014
lhumerus -57.199 28.2448 10.088
lradius 108.766
lwrist 5.9319
lhand -51.9379 60.5777
lfingers 7.12502
lthumb -24.448 -630.962
rfemur -12.6235 6.40858 9.72833
rtibia 23.7421
rfoot -21.9409 -5.6081
rtoes -15.6242
lfemur -10.1032 -15.0436 -13.8463
ltibia 15.3073
lfoot -3.31222 23.1976
ltoes -13.6023
439
root 6.08536 16.1708 3.18364 -164.564 -42.1502 166.33
lowerback 15.7058 7.69366 6.29351
upperback -7.86274 10.0361 -10.2467
thorax -14.5354 3.19722 -17.8974
lowerneck -11.1028 0.75444 -1.884
upperneck 29.2366 1.89788 -4.98872
head 11.3637 -0.393252 -1.35115
rclavicle -1.70955e-014 -7.63333e-014
rhumerus 0.341473 -2.43226 -62.793
rradius 100.508
rwrist -11.1815
rhand -44.7316 -6.968
rfingers 7.12502
rthumb -17.5254 -36.1981
lclavicle -1.70955e-014 -7.63333e-014
lhumerus -55.168 29.1052 10.8926
lradius 109.424
lwrist 5.7747
lhand -52.414 59.2713
lfingers 7.12502
lthumb -24.9043 -632.331
rfemur -12.6939 5.79909 10.4423
rtibia 24.8276
rfoot -22.7596 -5.21125
rtoes -13.6548
lfemur -11.6918 -15.0467 -12.9314
ltibia 16.1026
lfoot -0.984788 25.278
ltoes -16.0195
440
root 6.22447 16.1485 3.07855 -164.461 -44.1175 166.394
lowerback 15.6232 7.13637 6.70749
upperback -7.85446 9.43266 -9.9728
thorax -14.6558 2.88 -17.6893
lowerneck -10.9621 0.677307 -1.95671
upperneck 29.5114 1.79131 -5.02722
head 11.4401 -0.470819 -1.37407
rclavicle -1.18575e-013 -4.37326e-014
rhumerus -1.84113 -1.96788 -61.9849
rradius 101.772
rwrist -10.4107
rhand -44.6347 -7.01806
rfingers 7.12502
rthumb -17.4321 -36.2564
lclavicle -1.18575e-013 -4.37326e-014
lhumerus -51.8346 29.4594 13.0509
lradius 110.462
lwrist 5.33905
lhand -52.8255 60.4239
lfingers 7.12502
lthumb -25.2986 -631.234
rfemur -12.6007 5.07476 11.6451
rtibia 25.7042
rfoot -23.4115 -5.17691
rtoes -12.9186
lfemur -13.557 -14.1304 -11.6725
ltibia 17.1754
lfoot 1.69206 26.89
ltoes -21.4385
441
root 6.3706 16.1264 2.96162 -164.819 -46.6513 167.129
lowerback 15.3051 6.37019 7.18843
upperback -7.81811 8.6189 -9.35412
thorax -14.7111 2.50229 -17.0133
lowerneck -10.9317 0.81059 -1.43859
upperneck 29.6931 2.01146 -5.5848
head 11.5208 -0.39607 -1.6487
rclavicle 4.17448e-015 6.04305e-014
rhumerus -4.51695 -1.70231 -60.9652
rradius 103.342
rwrist -9.88168
rhand -44.3425 -6.87631
rfingers 7.12502
rthumb -17.1509 -36.1394
lclavicle 4.17448e-015 6.04305e-014
lhumerus -48.3928 29.677 15.7331
lradius 111.507
lwrist 4.1103
lhand -52.5143 57.8773
lfingers 7.12502
lthumb -25.0004 -633.739
rfemur -12.078 4.22281 13.5396
rtibia 25.9177
rfoot -23.7102 -5.76608
rtoes -14.0105
lfemur -15.5965 -13.1012 -9.78675
ltibia 18.1016
lfoot 4.99451 28.2424
ltoes -26.154
